<svg width="34" height="42" viewBox="0 0 34 42" fill="none" xmlns="http://www.w3.org/2000/svg">
<path d="M13.6834 28.871C13.2688 28.9763 12.9578 29.0817 12.6468 29.2925C12.2322 28.6602 11.9212 27.9226 11.5066 27.3958C10.781 26.3421 9.95172 25.3937 9.22611 24.34C8.08586 22.7595 7.15294 21.1789 6.7383 19.1768C5.80537 14.2244 8.50048 9.37733 13.1651 7.48065C19.281 4.95174 26.3298 9.16658 27.2627 15.805C27.6774 18.8607 26.7444 21.3896 25.0859 23.8132C24.3603 24.8669 23.4274 25.9206 22.7018 27.0797C22.1835 27.8173 21.8725 28.5549 21.3542 29.2925C21.1469 29.6086 20.9396 29.9247 20.6286 30.0301C18.2444 30.9784 15.8603 31.8214 13.4761 32.6643C13.1651 32.7697 12.9578 32.6643 12.8542 32.4536C12.7505 32.1375 12.7505 31.8214 13.0615 31.716C13.2688 31.6106 13.4761 31.5052 13.6834 31.5052C15.7566 30.7676 17.8298 30.0301 19.903 29.1871C20.1103 29.0817 20.3176 28.871 20.4212 28.6602C21.2505 27.0797 22.2871 25.8152 23.3237 24.34C24.3603 22.9702 25.2932 21.7057 25.7079 20.0198C26.7444 16.6479 26.0188 13.6975 23.7383 11.1686C21.1469 8.21825 17.8298 7.26991 14.0981 8.42899C10.3664 9.58807 8.29317 12.2223 7.56756 16.1211C7.04926 18.8607 7.98219 21.1789 9.53707 23.2863C10.47 24.5508 11.4029 25.8152 12.3359 27.0797C12.9578 27.5011 13.2688 28.1334 13.6834 28.871Z" fill="#FFB046"/>
<path d="M13.1625 39.3038C13.0589 39.1984 12.8516 39.093 12.8516 38.8823C12.8516 38.6715 12.9552 38.4608 13.0589 38.2501C13.0589 38.1447 13.2662 38.1447 13.3699 38.1447C15.6504 37.3017 18.0345 36.4587 20.315 35.6158C20.8333 35.405 21.0406 35.5104 21.1443 35.8265C21.2479 36.1426 21.0406 36.4587 20.626 36.6695C18.2418 37.5125 15.9613 38.3554 13.5772 39.3038C13.4735 39.1984 13.3698 39.1984 13.1625 39.3038Z" fill="#FFB046"/>
<path d="M13.1625 35.8256C13.0589 35.7203 12.8516 35.6149 12.8516 35.4042C12.8516 35.1934 12.9552 34.9827 13.0589 34.7719C13.0589 34.6666 13.2662 34.6666 13.3699 34.6666C15.6504 33.8236 18.0345 32.9806 20.315 32.1377C20.8333 31.9269 21.0406 32.0323 21.1443 32.3484C21.2479 32.6645 21.1443 32.9806 20.626 33.1914C18.2418 34.0343 15.9613 34.9827 13.5772 35.8256C13.4735 35.8256 13.3698 35.8256 13.1625 35.8256Z" fill="#FFB046"/>
<path d="M20.6272 38.776C19.9016 41.3049 15.8589 42.7801 13.3711 41.4103C15.7552 40.5673 18.1394 39.619 20.6272 38.776Z" fill="#FFB046"/>
<path d="M17.5171 1.89668C17.5171 2.31816 17.5171 2.73965 17.5171 3.16113C17.5171 3.47724 17.3097 3.68799 16.9988 3.68799C16.6878 3.68799 16.4805 3.47724 16.4805 3.16113C16.4805 2.31816 16.4805 1.47519 16.4805 0.526855C16.4805 0.210742 16.6878 0 16.9988 0C17.3097 0 17.5171 0.210742 17.5171 0.526855C17.5171 0.948339 17.5171 1.47519 17.5171 1.89668Z" fill="#FFB046"/>
<path d="M1.86585 16.6493C2.28048 16.6493 2.69513 16.6493 3.10976 16.6493C3.5244 16.6493 3.73172 16.86 3.73172 17.1762C3.73172 17.4923 3.5244 17.703 3.10976 17.703C2.28049 17.703 1.45123 17.703 0.621959 17.703C0.207324 17.703 0 17.4923 0 17.1762C0 16.86 0.207324 16.6493 0.621959 16.6493C1.03659 16.6493 1.45121 16.6493 1.86585 16.6493Z" fill="#FFB046"/>
<path d="M32.1333 17.8084C31.7187 17.8084 31.304 17.8084 30.8894 17.8084C30.5784 17.8084 30.3711 17.5976 30.3711 17.2815C30.3711 16.9654 30.5784 16.7547 30.8894 16.7547C31.7187 16.7547 32.6516 16.7547 33.4809 16.7547C33.7918 16.7547 33.9992 16.9654 33.9992 17.2815C33.9992 17.5976 33.7918 17.8084 33.4809 17.8084C32.9626 17.8084 32.5479 17.8084 32.1333 17.8084Z" fill="#FFB046"/>
<path d="M5.18232 4.63582C5.38964 4.74119 5.49329 4.84656 5.59695 4.95193C6.21891 5.58416 6.73721 6.11101 7.35916 6.74324C7.67014 7.05935 7.67014 7.27009 7.35916 7.58621C7.15185 7.79695 6.84085 7.79695 6.52988 7.58621C5.90792 6.95398 5.28599 6.42713 4.76769 5.7949C4.66404 5.68953 4.56037 5.37342 4.66403 5.16267C4.76769 4.84656 5.07866 4.74119 5.18232 4.63582Z" fill="#FFB046"/>
<path d="M26.8482 26.6584C27.0555 26.7638 27.1592 26.8692 27.2628 26.9746C27.8848 27.5014 28.4031 28.1336 29.025 28.6605C29.336 28.9766 29.336 29.2927 29.1287 29.5035C28.9214 29.7142 28.6104 29.7142 28.2994 29.3981C27.6775 28.7659 27.1592 28.239 26.5372 27.6068C26.4336 27.5014 26.3299 27.1853 26.4336 26.9746C26.4336 26.8692 26.6409 26.7638 26.8482 26.6584Z" fill="#FFB046"/>
<path d="M29.3353 5.26903C29.2316 5.47978 29.128 5.58515 29.0243 5.69052C28.4023 6.32274 27.884 6.8496 27.2621 7.48183C27.0548 7.69257 26.7438 7.79794 26.4328 7.48183C26.2255 7.27108 26.2255 6.95497 26.4328 6.63886C27.0548 6.00663 27.5731 5.3744 28.195 4.84755C28.2987 4.74218 28.6097 4.63681 28.817 4.74218C29.0243 4.84755 29.1279 5.16366 29.3353 5.26903Z" fill="#FFB046"/>
<path d="M5.18336 29.7142C5.0797 29.6088 4.87239 29.5035 4.76873 29.2927C4.66507 29.1874 4.76873 28.8713 4.76873 28.7659C5.39068 28.1337 6.01263 27.3961 6.73824 26.7638C6.94556 26.5531 7.25651 26.5531 7.46383 26.7638C7.67115 26.9746 7.67115 27.2907 7.46383 27.5014C6.84188 28.1337 6.21994 28.7659 5.59798 29.3981C5.49433 29.6088 5.39067 29.7142 5.18336 29.7142Z" fill="#FFB046"/>
</svg>
