<svg width="34" height="34" viewBox="0 0 34 34" fill="none" xmlns="http://www.w3.org/2000/svg">
<path d="M25.3583 24.6358C24.9899 23.5025 23.9274 22.6667 22.6666 22.6667H21.2499V18.4167C21.2499 18.0409 21.1007 17.6806 20.835 17.4149C20.5693 17.1493 20.209 17 19.8333 17H11.3333V14.1667H14.1666C14.5423 14.1667 14.9026 14.0174 15.1683 13.7517C15.434 13.4861 15.5833 13.1257 15.5833 12.75V9.91666H18.4166C19.168 9.91666 19.8887 9.61815 20.4201 9.0868C20.9514 8.55544 21.2499 7.83477 21.2499 7.08333V6.5025C25.4008 8.17416 28.3333 12.24 28.3333 17C28.3333 19.9467 27.1999 22.6242 25.3583 24.6358ZM15.5833 28.2342C9.98742 27.54 5.66659 22.78 5.66659 17C5.66659 16.1217 5.77992 15.2717 5.96409 14.4642L12.7499 21.25V22.6667C12.7499 23.4181 13.0484 24.1388 13.5798 24.6701C14.1111 25.2015 14.8318 25.5 15.5833 25.5V28.2342ZM16.9999 2.83333C15.1395 2.83333 13.2973 3.19976 11.5786 3.9117C9.85979 4.62364 8.29807 5.66715 6.98257 6.98265C4.32581 9.63941 2.83325 13.2428 2.83325 17C2.83325 20.7572 4.32581 24.3606 6.98257 27.0173C8.29807 28.3328 9.85979 29.3763 11.5786 30.0883C13.2973 30.8002 15.1395 31.1667 16.9999 31.1667C20.7572 31.1667 24.3605 29.6741 27.0173 27.0173C29.674 24.3606 31.1666 20.7572 31.1666 17C31.1666 15.1396 30.8002 13.2974 30.0882 11.5786C29.3763 9.85987 28.3328 8.29815 27.0173 6.98265C25.7018 5.66715 24.14 4.62364 22.4213 3.9117C20.7025 3.19976 18.8603 2.83333 16.9999 2.83333Z" fill="#009FE3"/>
</svg>
