<svg width="40" height="40" viewBox="0 0 40 40" fill="none" xmlns="http://www.w3.org/2000/svg">
<rect x="3.14624" y="18.5073" width="29.0222" height="1.35618" fill="#F8C301"/>
<path d="M26.4725 19.321C26.4725 27.2604 22.5258 33.6965 17.6573 33.6965C12.7888 33.6965 8.84216 27.2604 8.84216 19.321C8.84216 11.3817 12.7888 4.94556 17.6573 4.94556C22.5258 4.94556 26.4725 11.3817 26.4725 19.321ZM9.80378 19.321C9.80378 26.3943 13.3199 32.1283 17.6573 32.1283C21.9947 32.1283 25.5109 26.3943 25.5109 19.321C25.5109 12.2478 21.9947 6.51374 17.6573 6.51374C13.3199 6.51374 9.80378 12.2478 9.80378 19.321Z" fill="#F8C301"/>
<path d="M32.1684 19.321C32.1684 27.2604 25.6716 33.6965 17.6573 33.6965C9.64308 33.6965 3.14624 27.2604 3.14624 19.321C3.14624 11.3817 9.64308 4.94556 17.6573 4.94556C25.6716 4.94556 32.1684 11.3817 32.1684 19.321ZM4.42118 19.321C4.42118 26.5629 10.3472 32.4335 17.6573 32.4335C24.9675 32.4335 30.8935 26.5629 30.8935 19.321C30.8935 12.0792 24.9675 6.20858 17.6573 6.20858C10.3472 6.20858 4.42118 12.0792 4.42118 19.321Z" fill="#F8C301"/>
<rect x="16.9792" y="4.94556" width="1.35618" height="28.751" fill="#F8C301"/>
<path d="M27.5574 9.96331C27.5574 12.2852 23.0643 14.1675 17.5217 14.1675C11.9791 14.1675 7.48596 12.2852 7.48596 9.96331C7.48596 7.64142 11.9791 5.75916 17.5217 5.75916C23.0643 5.75916 27.5574 7.64142 27.5574 9.96331ZM9.4974 9.96331C9.4974 11.8198 13.09 13.3248 17.5217 13.3248C21.9534 13.3248 25.546 11.8198 25.546 9.96331C25.546 8.10679 21.9534 6.60179 17.5217 6.60179C13.09 6.60179 9.4974 8.10679 9.4974 9.96331Z" fill="#F8C301"/>
<path d="M27.5574 28.4074C27.5574 30.8791 23.0643 32.8828 17.5217 32.8828C11.9791 32.8828 7.48596 30.8791 7.48596 28.4074C7.48596 25.9357 11.9791 23.932 17.5217 23.932C23.0643 23.932 27.5574 25.9357 27.5574 28.4074ZM8.77934 28.4074C8.77934 30.5605 12.6934 32.306 17.5217 32.306C22.3499 32.306 26.264 30.5605 26.264 28.4074C26.264 26.2543 22.3499 24.5088 17.5217 24.5088C12.6934 24.5088 8.77934 26.2543 8.77934 28.4074Z" fill="#F8C301"/>
<path d="M29.911 32.3212L22.9347 19.0027C22.8428 18.8273 23.0147 18.6305 23.2009 18.6981L37.5326 23.8981C37.7107 23.9627 37.7263 24.2084 37.5579 24.295L33.5355 26.3637C33.3997 26.4335 33.3766 26.6179 33.4908 26.7191L37.8424 30.5733C37.9302 30.6511 37.9403 30.7846 37.8652 30.8747L36.787 32.1685C36.7086 32.2626 36.568 32.2732 36.4764 32.1921L32.1318 28.344C32.0183 28.2435 31.8394 28.2873 31.7852 28.4289L30.3059 32.298C30.2392 32.4725 29.9977 32.4867 29.911 32.3212Z" fill="#60C1F8" stroke="white" stroke-width="0.542471"/>
</svg>
