<svg width="40" height="40" viewBox="0 0 40 40" fill="none" xmlns="http://www.w3.org/2000/svg">
<rect x="5.75585" y="19.593" width="9.11105" height="13.8898" stroke="#F8C301" stroke-width="0.813954"/>
<rect x="8.65723" y="21.3916" width="3.30834" height="3.30834" fill="#60C1F8"/>
<rect x="8.65723" y="28.192" width="3.30834" height="3.30834" fill="#60C1F8"/>
<mask id="path-4-inside-1_43_63" fill="white">
<path fill-rule="evenodd" clip-rule="evenodd" d="M20.3385 9.80719C20.141 9.59666 19.8067 9.59666 19.6092 9.80719L12.4869 17.3986C12.1874 17.7179 12.4138 18.2408 12.8516 18.2408H14.2761V33.8372H25.6715V18.2408H27.0961C27.5339 18.2408 27.7603 17.7179 27.4607 17.3986L20.3385 9.80719Z"/>
</mask>
<path fill-rule="evenodd" clip-rule="evenodd" d="M20.3385 9.80719C20.141 9.59666 19.8067 9.59666 19.6092 9.80719L12.4869 17.3986C12.1874 17.7179 12.4138 18.2408 12.8516 18.2408H14.2761V33.8372H25.6715V18.2408H27.0961C27.5339 18.2408 27.7603 17.7179 27.4607 17.3986L20.3385 9.80719Z" fill="white"/>
<path d="M19.6092 9.80719L20.2028 10.3641V10.3641L19.6092 9.80719ZM20.3385 9.80719L19.7449 10.3641V10.3641L20.3385 9.80719ZM12.4869 17.3986L11.8933 16.8417H11.8933L12.4869 17.3986ZM14.2761 18.2408H15.0901V17.4268H14.2761V18.2408ZM14.2761 33.8372H13.4622V34.6512H14.2761V33.8372ZM25.6715 33.8372V34.6512H26.4855V33.8372H25.6715ZM25.6715 18.2408V17.4268H24.8576V18.2408H25.6715ZM27.4607 17.3986L26.8671 17.9556L26.8671 17.9556L27.4607 17.3986ZM20.2028 10.3641C20.0788 10.4963 19.8689 10.4963 19.7449 10.3641L20.9321 9.25027C20.413 8.69703 19.5346 8.69703 19.0156 9.25027L20.2028 10.3641ZM13.0805 17.9556L20.2028 10.3641L19.0156 9.25027L11.8933 16.8417L13.0805 17.9556ZM12.8516 17.4268C13.1265 17.4268 13.2686 17.7551 13.0805 17.9556L11.8933 16.8417C11.1061 17.6808 11.7011 19.0547 12.8516 19.0547V17.4268ZM14.2761 17.4268H12.8516V19.0547H14.2761V17.4268ZM15.0901 33.8372V18.2408H13.4622V33.8372H15.0901ZM25.6715 33.0233H14.2761V34.6512H25.6715V33.0233ZM24.8576 18.2408V33.8372H26.4855V18.2408H24.8576ZM27.0961 17.4268H25.6715V19.0547H27.0961V17.4268ZM26.8671 17.9556C26.6791 17.7551 26.8212 17.4268 27.0961 17.4268V19.0547C28.2466 19.0547 28.8415 17.6808 28.0543 16.8417L26.8671 17.9556ZM19.7449 10.3641L26.8671 17.9556L28.0543 16.8417L20.9321 9.25027L19.7449 10.3641Z" fill="#F8C301" mask="url(#path-4-inside-1_43_63)"/>
<circle cx="20.0001" cy="17.5581" r="2.03488" stroke="#60C1F8" stroke-width="0.813954"/>
<rect x="25.2908" y="19.5405" width="9.11105" height="13.8898" stroke="#F8C301" stroke-width="0.813954"/>
<rect x="28.1921" y="21.3392" width="3.30834" height="3.30834" fill="#60C1F8"/>
<rect x="28.1921" y="28.1395" width="3.30834" height="3.30834" fill="#60C1F8"/>
<rect x="17.2443" y="24.5698" width="5.51163" height="7.95349" stroke="#60C1F8"/>
<rect x="17.1512" y="22.0348" width="5.69767" height="0.813953" stroke="#60C1F8" stroke-width="0.813953"/>
<path d="M21.9956 6.80607L20.0657 7.36317V6.24896L21.9956 6.80607Z" fill="#FFBF00"/>
<rect x="19.79" y="6.16278" width="0.367593" height="3.49213" rx="0.183796" fill="#0C101A"/>
</svg>
