<svg width="34" height="42" viewBox="0 0 34 42" fill="none" xmlns="http://www.w3.org/2000/svg">
<path d="M32.9664 1.19598C32.4566 1.19598 31.8618 1.19598 31.352 1.19598C27.8681 1.40595 24.5542 2.35078 21.4102 4.24046C17.5865 6.44507 14.3576 9.59453 11.8084 13.7938C10.024 16.6283 8.74941 19.7778 7.81472 23.1372C7.72975 23.3471 7.81472 23.4521 7.89969 23.5571C8.66444 24.5019 9.42918 25.4468 10.1939 26.3916C10.2789 26.4966 10.3639 26.7066 10.3639 26.9165C10.3639 27.1265 10.2789 27.3365 10.109 27.4414C9.93902 27.5464 9.6841 27.5464 9.59913 27.3365C9.17427 26.8115 8.83438 26.3916 8.40952 25.8667C7.89969 25.2368 7.47483 24.6069 6.965 24.082C6.79505 23.8721 6.71008 23.5571 6.79505 23.2422C7.89969 19.1479 9.51416 15.3685 11.8084 12.0091C14.1026 8.54471 16.9067 5.81518 20.0507 3.82053C22.9397 1.93086 26.0837 0.776057 29.3126 0.251148C30.6722 0.0411848 32.0317 -0.0637969 33.3913 0.0411849C33.8161 0.0411849 33.9011 0.251148 33.9861 0.776057C34.156 7.59987 32.7965 13.8988 29.8225 19.7778C26.8484 25.5518 22.7698 29.856 17.6715 32.5855C16.9067 33.0055 16.057 33.3204 15.2073 33.7403C14.9524 33.8453 14.7824 33.8453 14.6125 33.5304C13.7628 32.4806 12.8281 31.3258 11.9783 30.2759C11.8084 30.066 11.7234 29.751 11.8934 29.4361C12.0633 29.1211 12.4032 29.1211 12.6581 29.4361C13.4229 30.3809 14.1876 31.3258 14.9524 32.2706C15.1223 32.4806 15.2073 32.4806 15.3772 32.3756C19.116 30.8009 22.4299 28.2813 25.234 24.9219C28.5479 20.9326 30.7571 16.2084 32.0317 10.8543C32.7115 7.91482 33.0514 4.87035 33.0514 1.72089C33.0514 1.51093 32.9664 1.40595 32.9664 1.19598Z" fill="#FFB046"/>
<path d="M28.2924 13.4776C28.2924 17.047 25.9981 19.8815 23.1091 19.8815C20.22 19.8815 17.9258 17.047 17.9258 13.4776C17.9258 10.0133 20.22 7.07376 23.0241 7.07376C25.9981 7.07376 28.2924 9.90827 28.2924 13.4776ZM27.2727 13.5826C27.2727 10.6431 25.4033 8.33354 23.0241 8.33354C20.6449 8.33354 18.7755 10.6431 18.7755 13.5826C18.7755 16.5221 20.6449 18.8317 23.0241 18.8317C25.4033 18.7267 27.2727 16.4171 27.2727 13.5826Z" fill="#FFB046"/>
<path d="M15.2922 40.3559C15.887 39.936 16.4818 39.4111 16.9917 38.8862C18.6911 36.9965 19.6258 34.6869 20.0507 31.9574C20.1356 31.5374 20.3056 31.3275 20.5605 31.3275C20.9004 31.3275 21.0703 31.6424 21.0703 32.0624C20.9853 32.5873 20.9004 33.2172 20.7304 33.7421C19.7957 37.3114 18.0963 39.936 15.4622 41.7207C14.8674 42.1406 14.6124 41.9306 14.5275 41.1958C14.1876 38.9912 13.8477 36.6816 13.5078 34.4769C13.5078 34.267 13.5078 34.057 13.5078 33.952C13.5928 33.7421 13.7627 33.6371 14.0176 33.6371C14.1876 33.6371 14.3575 33.847 14.4425 34.057C14.5275 34.6869 14.6124 35.3168 14.7824 36.0517C14.8674 37.5214 15.1223 38.8862 15.2922 40.3559Z" fill="#FFB046"/>
<path d="M1.27167 23.0311C1.7815 23.136 2.29133 23.241 2.71619 23.346C3.9058 23.661 5.09541 23.8709 6.20004 24.1859C6.28502 24.1859 6.28502 24.1859 6.36999 24.1859C6.6249 24.2908 6.79485 24.6058 6.70988 24.9207C6.6249 25.2357 6.45496 25.4456 6.11507 25.3407C5.4353 25.1307 4.67055 25.0257 3.99077 24.8158C2.88614 24.5008 1.7815 24.2908 0.591893 23.9759C0.506921 23.9759 0.506921 23.9759 0.421949 23.9759C-0.00291067 23.8709 -0.0878827 23.556 0.0820613 23.0311C0.591893 21.8763 1.1867 20.7215 1.95145 19.7766C3.56591 17.677 5.52027 16.5222 7.72954 15.8923C7.81451 15.8923 7.89948 15.8923 7.89948 15.7873C8.1544 15.6823 8.40932 15.8923 8.49429 16.2072C8.57926 16.5222 8.40932 16.8371 8.06943 16.9421C7.5596 17.1521 6.96479 17.2571 6.45496 17.467C4.24569 18.4119 2.54625 20.0916 1.27167 22.5062C1.35664 22.8211 1.35664 22.9261 1.27167 23.0311Z" fill="#FFB046"/>
<path d="M7.30469 32.3742C7.38966 32.2692 7.47463 32.0592 7.5596 31.9543C9.17407 29.9596 10.7036 28.0699 12.318 26.0753C12.9128 25.3404 13.4227 24.7105 14.0175 23.9756C14.2724 23.6607 14.5273 23.6607 14.7822 23.8707C14.9522 24.0806 14.9522 24.5006 14.6972 24.8155C12.8279 27.1251 10.9585 29.5397 9.00413 31.8493C8.74921 32.1642 8.4943 32.5842 8.15441 32.8991C7.98446 33.1091 7.81452 33.1091 7.64458 33.0041C7.38966 32.8991 7.30469 32.6891 7.30469 32.3742Z" fill="#FFB046"/>
<path d="M5.09247 35.1035C5.26241 35.2084 5.43235 35.3134 5.51733 35.5234C5.6023 35.7333 5.51733 35.9433 5.43235 36.1533C5.34738 36.2583 5.17744 36.4682 5.09247 36.6782C4.0728 37.938 3.05314 39.3027 1.9485 40.5625C1.77856 40.6675 1.69359 40.7725 1.52364 40.7725C1.3537 40.7725 1.18375 40.6675 1.09878 40.4575C1.01381 40.1426 1.01381 39.9326 1.18375 39.7227C1.86353 38.8828 2.54331 38.0429 3.22308 37.2031C3.73291 36.5732 4.15777 36.0483 4.66761 35.4184C4.83755 35.3134 4.92252 35.2084 5.09247 35.1035Z" fill="#FFB046"/>
<path d="M4.33107 30.8029C4.75593 30.8029 5.01085 31.3278 4.8409 31.6428C4.75593 31.7478 4.75593 31.8527 4.67096 31.9577C3.56632 33.3225 2.46169 34.6872 1.35705 36.052L1.27208 36.157C1.01716 36.367 0.762246 36.4719 0.592302 36.157C0.422358 35.947 0.422358 35.5271 0.592302 35.3171C1.44202 34.2673 2.29174 33.2175 3.14146 32.1677C3.48135 31.7478 3.73627 31.4328 4.07615 31.1179C4.16113 30.9079 4.33107 30.8029 4.33107 30.8029Z" fill="#FFB046"/>
<path d="M9.09167 36.6806C9.09167 36.7856 9.0067 36.8906 8.92173 37.1005C7.73212 38.5703 6.62748 39.935 5.43788 41.4048C5.18296 41.7197 4.92804 41.7197 4.67313 41.4048C4.50318 41.1948 4.50318 40.7749 4.7581 40.5649C5.94771 39.0952 7.05234 37.7304 8.24195 36.2607C8.4119 36.0507 8.58184 35.9457 8.83676 36.0507C9.0067 36.1557 9.09167 36.2607 9.09167 36.6806Z" fill="#FFB046"/>
</svg>
